<?xml version="1.0" encoding="utf-8"?>
<svg version="1.1" xmlns="http://www.w3.org/2000/svg" xmlns:xlink="http://www.w3.org/1999/xlink" viewBox="0 0 260 260" xml:space="preserve">
	<defs>
		<g id="eye">
			<circle fill="white" cx="0" cy="0" r="11.475" />
			<circle fill="#65C9FF" cx="0" cy="0" r="8.235" />
			<circle fill="#3B697E" cx="0" cy="0" r="4.995" />
			<circle fill="white" cx="-3" cy="-3" r="3.51" />
		</g>
	</defs>
	<mask id="m0" fill="white">
		<circle cx="120" cy="120" r="120" transform="translate(10 10)" />
	</mask>
	<rect fill="#FFE478" width="260" height="260" mask="url(#m0)" />
	<g transform="translate(0 -34)">
		<g id="skin" transform="translate(5 12)">
			<path fill="#EDB98A" d="M147.5107,167.9 V186 h3.7056 c37.2466,0 67.3670,31.7 67.3670,70.9 v8.9 h-187.1833 v-8.9 c0,-39.2 30.1203,-70.9 67.3670,-70.9 h3.70566 v-18.1 c-16.1528,-8.1 -27.7449,-24.5 -29.6452,-44.1 C67.5064,123 63.3256,118.1 63.325,112.1 V98.3 c0,-5.9 4.0857,-10.7 9.311,-11.7 v-6.1 C72.6373,50.1 96.1065,25.5 125.0867,25.5 s52.449,24.7 52.4493,55.2 v6.1 c5.3209,0.9 9.3116,5.8 9.3116,11.7 v13.8 c0,6 -4.1807,10.9 -9.5967,11.7 C175.2556,143.3 163.6635,159.8 147.5107,167.9 L147.5107,167.9 z" />
		</g>
		<g id="hoodie" transform="translate(0 170)" mask="url(#m0b)">
			<path fill="#65C9FF" transform="translate(5 -160)" d="M102.6627,170.3 c-16.7229,2 -29.6452,7.4 -29.9303,21.2 c-24.229,10.8 -41.1423,36 -41.1423,65.3 v8.9 h187.1833 v-8.9 c0,-29.4 -17.0080,-54.6 -41.1423,-65.3 c-0.285,-13.9 -13.2073,-19.3 -29.9303,-21.2 v18.6 c0,13.1 -10.0717,23.6 -22.4239,23.6 S102.6627,202 102.6627,188.9 C102.6627,188.9 102.6627,170.3 102.6627,170.3 z" />
			<path fill="white" d="M100.5,58.2v47.5h-6.9V54.7C95.7,56,98,57.2,100.5,58.2L100.5,58.2z M166.4,54.7v39.7c0,1.9-1.5,3.4-3.4,3.4
		c-1.9,0-3.4-1.5-3.4-3.4V58.2C162,57.2,164.3,56,166.4,54.7L166.4,54.7z" />
			<mask id="m1" maskUnits="userSpaceOnUse" x="64.5" y="10" width="131" height="54.4">
				<path fill="#65C9FF" d="M106.4,12.3c-17.6,2-31.2,7.4-31.5,21.2c-25.5,10.8-43.3,36-43.3,65.3v8.9h197v-8.9
				c0-29.4-17.9-54.6-43.3-65.3c-0.3-13.9-13.9-19.3-31.5-21.2v18.6c0,13.1-10.6,23.6-23.6,23.6S106.4,42,106.4,28.9
				C106.4,28.9,106.4,10.3,106.4,10.3z" />
			</mask>
			<path mask="url(#m1)" fill-opacity="0.16" d="M89.6,10c-14.8,2.8-25.1,8.4-25.1,19.3c0,19.4,32.5,35.2,65.5,35.2s65.5-15.7,65.5-35.2
		c0-10.9-10.3-16.5-25.1-19.3c8.9,3.3,14.7,8.8,14.7,18.1c0,20.1-27.4,36.4-55.2,36.4S74.8,48.1,74.8,28
		C74.8,18.8,80.6,13.3,89.6,10L89.6,10z" />
		</g>
		<g transform="translate(76 82)">
			<g id="mouth" transform="translate(2 52)">
				<path d="M33.4,12.9c1,9.3,9,16.6,18.6,16.6c9.7,0,17.6-7.3,18.6-16.7c0.1-0.8-0.8-2-1.8-2H35.3C34.3,10.8,33.3,11.9,33.4,12.9z" />
				<mask id="m4" maskUnits="userSpaceOnUse" x="37.2" y="-0.1" width="30.5" height="15.8">
					<path fill="white" d="M33.4,12.9c1,9.3,9,16.6,18.6,16.6c9.7,0,17.6-7.3,18.6-16.7c0.1-0.8-0.8-2-1.8-2H35.3
				C34.3,10.8,33.3,11.9,33.4,12.9z" />
				</mask>
				<path mask="url(#m4)" fill="white" d="M42.2-0.1h20.7c2.7,0,4.9,2.2,4.9,4.9v5.9c0,2.7-2.2,4.9-4.9,4.9H42.2c-2.7,0-4.9-2.2-4.9-4.9V4.9
			C37.2,2.1,39.4-0.1,42.2-0.1z" />
				<mask id="m5" maskUnits="userSpaceOnUse" x="36.2" y="21.6" width="31.5" height="21.7">
					<path fill="white" d="M33.4,12.9c1,9.3,9,16.6,18.6,16.6c9.7,0,17.6-7.3,18.6-16.7c0.1-0.8-0.8-2-1.8-2H35.3
				C34.3,10.8,33.3,11.9,33.4,12.9z" />
				</mask>
				<g name="tongue" mask="url(#m5)">
					<g transform="translate(38 24)">
						<circle fill="#FF4F6D" cx="9.1" cy="8.4" r="10.8" />
						<circle fill="#FF4F6D" cx="18.9" cy="8.4" r="10.8" />
					</g>
				</g>
			</g>
			<path id="nose" fill="#C29D79" d="M14.2,6c0,4.4,5.3,7.9,11.8,7.9S37.8,10.4,37.8,6" transform="translate(28 40)" />
			<g id="eyes" transform="translate(27 30)">
				<use xlink:href="#eye" />
				<use xlink:href="#eye" transform="translate(55 0)" />
			</g>
			<g id="eyebrows">
				<path fill="#B58143" d="M25,9.8c-5.7,0.3-15,4.4-14.7,10.2c0,0.2,0.3,0.3,0.4,0.1c2.7-2.9,22-5.9,28.8-4.3c0.6,0.1,1.1-0.5,0.7-0.9
			C36.8,11.1,30.1,9.6,25,9.8" />
				<path fill="#B58143" d="M84,9.8c5.7,0.3,15,4.4,14.7,10.2c0,0.2-0.3,0.3-0.4,0.1c-2.7-2.9-22-5.9-28.8-4.3c-0.6,0.1-1.1-0.5-0.7-0.9
			C72.2,11.1,78.9,9.6,84,9.8" />
			</g>
		</g>
		<g id="beard" transform="translate(5 10)">
			<path fill="#B58143" d="M141.4296163521469,157.6 c-2.375423498826592,2.3 -4.845863937606247,3.3 -7.98142295605735,2.6 c-0.5701016397183822,-0.1 -2.7554912586388465,-4.5 -8.26647377591654,-4.5 c-5.510982517277693,0 -7.696372136198158,4.3 -8.26647377591654,4.5 c-3.1355590184511013,0.7000000000000004 -5.701016397183821,-0.3000000000000002 -7.98142295605735,-2.6 c-4.465796177793994,-4.2 -8.076439896010413,-10.1 -5.891050277089949,-16.5 c1.140203279436764,-3.3 3.040542078498038,-7 6.46115191680833,-8 c3.6106437182164197,-1.1 8.741558475681858,0 12.447219133851341,-0.8 c1.235220219389828,-0.3000000000000002 2.470440438779656,-0.7000000000000004 3.325592898357229,-1.4 c0.8551524595775734,0.7000000000000004 2.185389618920465,1.2 3.325592898357229,1.4 c3.7056606581694838,0.8 8.741558475681858,-0.4 12.447219133851341,0.8 c3.4206098383102934,1.1 5.320948637371566,4.7 6.46115191680833,8 C149.5060562481573,147.5 145.80039558998783,153.3 141.4296163521469,157.6 M177.5360535343111,86.5 c-3.230575958404165,8.3 -1.9953557390143375,18.6 -2.5654573787327197,27.3 c-0.47508469976531853,7.1 -1.9003387990612737,17.6 -7.886406016104286,22.2 c-3.040542078498038,2.3 -8.551524595775732,6.2 -12.542236073804405,5.2 c-2.7554912586388465,-0.8 -3.040542078498038,-9 -6.651185796714458,-12.1 c-4.085728417981738,-3.5 -9.216643175447176,-5.1 -14.347557932912615,-4.8 c-2.185389618920465,0.1 -6.746202736667522,0.1 -8.551524595775732,1.9 c-1.9003387990612737,-1.8 -6.3661349768552675,-1.8 -8.551524595775732,-1.9 C111.40426332697878,124 106.27334856951335,125.5 102.1876201515316,129 c-3.6106437182164197,3.1 -3.895694538075611,11.4 -6.651185796714458,12.1 c-3.990711478028675,1.1 -9.501693995306368,-2.8 -12.542236073804405,-5.2 c-5.986067217043011,-4.6 -7.411321316338967,-15.1 -7.886406016104286,-22.2 c-0.5701016397183822,-8.7 0.6651185796714462,-19 -2.5654573787327197,-27.3 c-1.5202710392490189,0 -0.5701016397183822,15.9 -0.5701016397183822,15.9 v20 c0,15.1 8.931592355587988,37.6 28.7901328057783,46.2 c4.845863937606247,2.1 15.867828972161634,5.5 24.22931968803124,5.5 s19.38345575042499,-3.1 24.22931968803124,-5.2 c19.858540450190308,-8.6 28.7901328057783,-31.5 28.7901328057783,-46.5 v-20 C178.10615517402948,102.4 179.1513415135132,86.5 177.5360535343111,86.5" />
		</g>
	</g>
</svg>
